# xmcd
# 
# Track frame offsets:
#     150
#     17461
#     33881
#     49553
#     67571
#     81379
#     97644
#     112089
#     131048
#     154240
# 
# Disc length: 2227
# 
# Revision: 4
# Processed by: cddbd v1.5.2PL0 Copyright (c) Steve Scherf et al.
# Submitted via: fre:ac v1.1beta1pre5
# 
DISCID=6d08b10a
DTITLE=Annett Louisan - Kleine Liebe
DYEAR=2019
DGENRE=Chanson
TTITLE0=kleine große liebe
TTITLE1=wir sind verwandt
TTITLE2=zweites erstes mal
TTITLE3=ich tu nur weh wenn ich liebe
TTITLE4=ein besserer mensch
TTITLE5=klein
TTITLE6=eine frage der ehre
TTITLE7=two shades of torsten
TTITLE8=saboteur
TTITLE9=die schönsten wege sind aus holz
EXTD=
EXTT0=
EXTT1=
EXTT2=
EXTT3=
EXTT4=
EXTT5=
EXTT6=
EXTT7=
EXTT8=
EXTT9=
PLAYORDER=
